<svg id="Layer_1" enable-background="new 0 0 510 510" height="512" viewBox="0 0 510 510" width="512" xmlns="http://www.w3.org/2000/svg"><g><g><g><path d="m255 0c-98.131 0-158.58 55.352-158.747 55.445 0 0-2.513 3.137-2.983 5.222-3.818 16.948-7.385 39.663-7.385 56.238 0 140.833 118.763 254.972 259.596 254.972 54.231 0 114.568-25.992 154.949-57.243.903-.699 3.769-5.396 3.769-5.396.178-1.087 5.8-23.477 5.8-54.239.001-140.832-114.166-254.999-254.999-254.999z" fill="#daf1f4"/></g><g><g><path d="m504.2 309.239c-43.559 34.696-98.724 55.441-158.741 55.441-140.833 0-255-114.167-255-255 0-18.615 2.007-36.753 5.795-54.234-.006.005.006-.005 0 0-58.645 46.719-96.254 118.746-96.254 199.554 0 58.834 19.925 113.015 53.395 156.162 62.957 49.415 116.706 45.488 198.705 45.488 81.498 0 138.015-14.204 204.516-45.496 22.812-29.402 39.371-64.008 47.584-101.915z" fill="#b1e4f9"/></g></g><g><g><path d="m53.406 411.153c46.648 60.135 119.596 98.847 201.594 98.847 81.498 0 154.75-38.445 201.614-98.847z" fill="#6bbef6"/></g></g></g><g><g><path d="m183.907 66.515h83.675v-37.341c0-3.599-3.433-6.206-6.9-5.24l-76.775 21.405z" fill="#fa870a"/></g><g><path d="m267.581 398.818-92 18.178-135.595-313.035 252.155 50.37z" fill="#fff"/></g><g><path d="m292.141 154.331 5.06-50.37h-257.215l5.358 50.37z" fill="#f6f1f1"/></g><g><path d="m162.82 350.423-26.214-246.462h-96.62l33.948 319.172c1.168 10.982 10.433 19.314 21.477 19.314h148.25c11.092 0 20.381-8.403 21.49-19.439l2.43-24.189h-50.945c-27.673-.001-50.889-20.878-53.816-48.396z" fill="#f6f1f1"/></g><g><path d="m295.478 108.156h-254.092l95.141-62.817h144.665c7.889 0 14.285 6.396 14.285 14.285v48.532z" fill="#ffa50a"/></g><g><path d="m136.528 108.156h-95.142v-48.533c0-7.889 6.396-14.285 14.285-14.285h80.856v62.818z" fill="#fa870a"/></g><g><path d="m316.843 139.323h-158.378l-16.686-56.335 16.686-7.72h158.378z" fill="#ffc305"/></g><g><path d="m20.021 75.268h138.444v64.054h-138.444z" fill="#ffa50a"/></g><g><path d="m217.273 231.968h-81.472l-8.338 83.744 23.339 64.068h121.862c2.354 0 4.321-1.79 4.543-4.133l13.136-138.685z" fill="#a55a3c"/></g><g><path d="m135.801 231.968h-84.312c-2.727 0-4.845 2.376-4.534 5.085l15.951 138.685c.265 2.303 2.215 4.042 4.534 4.042h83.362z" fill="#823214"/></g></g><g><path d="m297.135 231.968-23.353 34.864c0 75.97 9.901 134.312 85.871 134.312 48.026 0 85.479 3.5 110.083-33.799 14.316-21.703 22.648-47.701 22.648-75.645v-59.732z" fill="#ffc305"/></g><g><path d="m400.914 442.447h-92.17c-6.13 0-11.099-4.969-11.099-11.099v-17.454h114.368v17.454c0 6.13-4.969 11.099-11.099 11.099z" fill="#fa870a"/></g><g><path d="m201.228 359.495c-25.528 0-46.296-20.769-46.296-46.296s20.768-46.296 46.296-46.296 46.296 20.768 46.296 46.296-20.768 46.296-46.296 46.296zm0-65.592c-10.64 0-19.296 8.656-19.296 19.296s8.656 19.296 19.296 19.296 19.296-8.656 19.296-19.296-8.656-19.296-19.296-19.296z" fill="#fa870a"/></g><g><path d="m434.692 371.848c-75.97 0-137.556-61.586-137.556-137.556v-2.324h-79.862v59.732c0 75.97 61.586 137.556 137.556 137.556 48.026 0 90.295-24.618 114.899-61.917-11.187 2.938-22.928 4.509-35.037 4.509z" fill="#ffa50a"/></g><g><g><path d="m390.327 291.258-35.498 2.436-35.498 68.56c13.93 13.93 41.115 9.329 60.72-10.276s24.206-46.79 10.276-60.72z" fill="#a55a3c"/></g><g><path d="m351.955 341.327c3.99-10.364 3.007-21.745 9.135-31.487 6.528-10.378 17.499-15.369 28.711-19.072-14.077-13.313-40.829-8.6-60.194 10.765-18.742 18.742-23.759 44.404-11.994 58.798 14.793 9.291 28.896-4.86 34.342-19.004z" fill="#823214"/></g></g><g><path d="m365.938 67.104c4.444 16.209-5.735 38.285-.281 53.337 2.832 7.61 8.378 14.018 12.845 23.13 14.198 29.205-5.919 48.864-17.401 70.278-3.082-11.15 1.244-28.974 1.772-38.931 1.178-18.203-6.378-21.44-14.259-37.533-14.181-29.013 5.542-48.192 17.324-70.281z" fill="#fff"/></g><g><path d="m402.898 58.553c2.411 5.322-1.135 11.875 1.407 21.196 2.248 6.422 13.726 15.08 7.435 31.097-2.449 6.253-7.695 11.457-11.089 15.859-2.346-5.143 3.26-17.634-5.661-29.865-10.244-16.752-2.769-24.358 7.908-38.287z" fill="#fff"/></g><g><path d="m325.393 143.103c2.411 5.322-1.135 11.875 1.407 21.196 2.248 6.422 13.726 15.08 7.435 31.097-2.449 6.253-7.695 11.457-11.089 15.859-2.346-5.143 3.26-17.634-5.661-29.865-10.243-16.751-2.769-24.358 7.908-38.287z" fill="#fff"/></g></g></svg>